<svg xmlns="http://www.w3.org/2000/svg" xmlns:xlink="http://www.w3.org/1999/xlink" width="100" height="100" viewBox="0 0 100 100">
  <defs>
    <clipPath id="clip-path">
      <rect id="Rectangle_2929" data-name="Rectangle 2929" width="100" height="100" fill="#201f25"/>
    </clipPath>
  </defs>
  <g id="Group_1591" data-name="Group 1591" transform="translate(0 0.011)">
    <g id="Group_1590" data-name="Group 1590" transform="translate(0 -0.011)" clip-path="url(#clip-path)">
      <path id="Path_1733" data-name="Path 1733" d="M50.809,47.111c6.6-10.4,17.578-19.763,26.291-23.463-8.623,6.614-17.658,17.893-24.825,28.436h-.19C47.631,40.581,36.824,23.34,27.37,14.577,34.331,18.306,42.714,26.931,47.357,36.1,54.61,7.193,9.541,0,9.541,0c7.271,10.134,4.471,20.933,9.591,32.068,4.425,9.624,13.439,12,22.526,10.041h0A49.362,49.362,0,0,1,45.2,49.679,27.283,27.283,0,0,1,47.16,59.893V76.65a10.348,10.348,0,0,0-7.945-.09c-2.442.957-4.446,3.467-5.844,5.288h0a10,10,0,0,0-11.939,2.545,12.126,12.126,0,0,0-2.379,4.04A9.934,9.934,0,0,0,6.632,90.675a12.486,12.486,0,0,0-2.609,4.81,11.565,11.565,0,0,0-3.252,1.4c-1.333.848-.832,3.108.7,3.108H94.634a1.671,1.671,0,0,0,1.148-2.7,6.252,6.252,0,0,0-1.291-1.2,7.668,7.668,0,0,0-3.11-1.284,4.838,4.838,0,0,0-.5-2.8C89.524,89.461,86,88.13,81.842,88.177a9.637,9.637,0,0,0-10.165-6.118c-.543-2.9-4.091-5.51-8.662-6.141a11.17,11.17,0,0,0-7.961,1.6v-21.8a1.069,1.069,0,0,1,1.39-1.019c10.68,3.458,17.7-1.015,24.182-12.116C88.033,29.9,90.16,19.48,100,8.211c0,0-54.353,3.819-49.186,38.9Z" transform="translate(0 0.008)" fill="#201f25"/>
    </g>
  </g>
</svg>
