<svg xmlns="http://www.w3.org/2000/svg" xmlns:xlink="http://www.w3.org/1999/xlink" width="100" height="99.999" viewBox="0 0 100 99.999">
  <defs>
    <clipPath id="clip-path">
      <rect id="Rectangle_2930" data-name="Rectangle 2930" width="100" height="99.999" fill="#201f25"/>
    </clipPath>
  </defs>
  <g id="Group_1593" data-name="Group 1593" transform="translate(0 0.001)">
    <g id="Group_1592" data-name="Group 1592" transform="translate(0 -0.001)" clip-path="url(#clip-path)">
      <path id="Path_1734" data-name="Path 1734" d="M25.793,3.8A10.5,10.5,0,1,1,18.37,6.877,10.5,10.5,0,0,1,25.793,3.8M3.075,57.773h8.864l-3.513-7.28,3.567-7.386,1.184-2.452V57.773H38.41V39.125a3.484,3.484,0,0,1,.253.269l6.894,9.356a3.991,3.991,0,0,0,5.922.572L64.495,37.372a3.994,3.994,0,1,0-5.4-5.882L49.35,40.433l-4.259-5.776h0a11.661,11.661,0,0,0-9.343-4.725H16.77A11.648,11.648,0,0,0,6.323,36.506L.4,48.764a3.977,3.977,0,0,0,0,3.474ZM0,98.174c0,2.427,30.218,2.427,30.218,0,0-6.924-6.764-12.539-15.11-12.539S0,91.25,0,98.174ZM98.889,0H50.4V4.443H95.556V51.11H70.827v4.444H98.889A1.112,1.112,0,0,0,100,54.443V1.11A1.111,1.111,0,0,0,98.889,0M22.152,76.239a7.041,7.041,0,1,0-2.062,4.979,7.042,7.042,0,0,0,2.062-4.979M69.781,98.178c0,2.427,30.218,2.427,30.218,0,0-6.924-6.763-12.539-15.109-12.539S69.781,91.253,69.781,98.178M91.932,76.239a7.042,7.042,0,1,0-2.063,4.979,7.042,7.042,0,0,0,2.063-4.979M65.11,98.178c0-6.924-6.763-12.539-15.109-12.539S34.89,91.253,34.89,98.178c0,2.427,30.218,2.427,30.218,0ZM42.959,76.239a7.041,7.041,0,1,0,2.062-4.979,7.042,7.042,0,0,0-2.062,4.979" transform="translate(0 0.001)" fill="#201f25"/>
    </g>
  </g>
</svg>
