<?xml version="1.0" encoding="utf-8"?>
<!-- Generator: Adobe Illustrator 23.0.1, SVG Export Plug-In . SVG Version: 6.00 Build 0)  -->
<svg version="1.1" id="Layer_1" xmlns:serif="http://www.serif.com/"
	 xmlns="http://www.w3.org/2000/svg" xmlns:xlink="http://www.w3.org/1999/xlink" x="0px" y="0px" viewBox="0 0 600.1 600.2"
	 style="enable-background:new 0 0 600.1 600.2;" xml:space="preserve">
<style type="text/css">
	.st0{fill:#FFFFFF;}
</style>
<path class="st0" d="M555.7,0c24.5,0,44.4,19.4,44.4,43.3v513.6c0,23.9-19.9,43.3-44.4,43.3H44.3C19.8,600.2,0,580.7,0,556.8V43.3
	C0,19.4,19.8,0,44.3,0C44.3,0,555.7,0,555.7,0z M511.4,511.4V354.3c0-77.1-16.7-136.4-106.8-136.4c-43.3,0-72.4,23.7-84.2,46.3h-1.2
	V225h-85.3v286.4h88.9V369.7c0-37.4,7.1-73.6,53.4-73.6c45.7,0,46.3,42.7,46.3,75.9v139.3H511.4L511.4,511.4z M178,225H88.9v286.4
	H178V225z M133.5,82.6c-28.6,0-51.6,23.1-51.6,51.6c0,28.5,23.1,51.6,51.6,51.6c28.5,0,51.6-23.1,51.6-51.6
	C185.1,105.7,162,82.6,133.5,82.6z"/>
</svg>
