<svg xmlns="http://www.w3.org/2000/svg" xmlns:xlink="http://www.w3.org/1999/xlink" width="584" height="59.458" viewBox="0 0 584 59.458">
  <defs>
    <clipPath id="clip-path">
      <path id="Path_5" data-name="Path 5" d="M0,28.4H584V-31.054H0Z" transform="translate(0 31.054)" fill="#fff"/>
    </clipPath>
  </defs>
  <g id="Group_12" data-name="Group 12" transform="translate(0 31.054)">
    <g id="Group_8" data-name="Group 8" transform="translate(0 -31.054)" clip-path="url(#clip-path)">
      <g id="Group_6" data-name="Group 6" transform="translate(227.631 0.692)">
        <path id="Path_3" data-name="Path 3" d="M0,9.751V-10.332H16.5v5.055H6.585v2.349h9.682V2.131H6.585V4.693H16.5V9.751Zm19.553,0V-10.332h9.713C36.113-10.332,41.2-6.719,41.2-.3S36.113,9.751,29.3,9.751Zm6.585-5.3h3.129c3.293,0,5.252-2.225,5.252-4.754,0-2.711-1.7-4.729-5.219-4.729H26.137ZM43.31-10.332h6.682V1.288c0,1.93,1.076,3.466,3.781,3.466,2.675,0,3.751-1.536,3.751-3.466v-11.62h6.682V1.47c0,5-3.1,8.643-10.433,8.643S43.31,6.468,43.31,1.5ZM66.676-.274c0-6.2,5.152-10.387,11.8-10.387,5.87,0,8.739,3.067,10.042,5.84L82.846-2.384A4.633,4.633,0,0,0,78.476-5.3,4.951,4.951,0,0,0,73.36-.274a4.954,4.954,0,0,0,5.116,5.028,4.633,4.633,0,0,0,4.369-2.922l5.673,2.411c-1.271,2.679-4.172,5.87-10.042,5.87-6.648,0-11.8-4.216-11.8-10.387M105.559,9.751l-.848-2.591H96.365l-.846,2.591H88.377L96.4-10.332h8.283L112.7,9.751Zm-5.02-14.722L98.062,2.1h4.955ZM116.582,9.751V-5.034h-5.834v-5.3h18.224v5.3h-5.8V9.751Zm14.737,0V-10.332h16.5v5.055H137.9v2.349h9.682V2.131H137.9V4.693h9.912V9.751Zm31.933,0V-5.034h-5.834v-5.3h18.224v5.3h-5.8V9.751Zm29.472,0V2.075h-7.791V9.751h-6.585V-10.332h6.585v7.1h7.791v-7.1h6.586V9.751Zm9.751,0V-10.332h16.5v5.055h-9.912v2.349h9.682V2.131h-9.682V4.693h9.912V9.751Zm27.747,0V-10.332h16.495v5.055h-9.91v2.349h9.681V2.131h-9.681v7.62Zm19.42-20.083h6.682V1.288c0,1.93,1.076,3.466,3.781,3.466,2.675,0,3.751-1.536,3.751-3.466v-11.62h6.682V1.47c0,5-3.1,8.643-10.433,8.643S249.644,6.468,249.644,1.5ZM278.965,9.751V-5.034h-5.834v-5.3h18.224v5.3h-5.8V9.751Zm15.1-20.083h6.682V1.288c0,1.93,1.074,3.466,3.781,3.466,2.673,0,3.749-1.536,3.749-3.466v-11.62h6.682V1.47c0,5-3.1,8.643-10.431,8.643S294.062,6.468,294.062,1.5ZM330.088,9.751l-3-6.445h-2.38V9.751h-6.585V-10.332h11.6c5.087,0,7.823,3.13,7.823,6.893a6.455,6.455,0,0,1-3.91,6.083l3.942,7.107ZM328.719-5.277H324.71v3.523h4.009a1.949,1.949,0,0,0,2.152-1.773,1.949,1.949,0,0,0-2.152-1.75M339.872,9.751V-10.332h16.5v5.055h-9.912v2.349h9.682V2.131h-9.682V4.693h9.912V9.751Zm-17.1,16.861h-4.011v3.521h4.011a1.951,1.951,0,0,0,2.152-1.779,1.947,1.947,0,0,0-2.152-1.742M0,47.083H356.369V16.133H0ZM0,16.133m17.391,20.5a4.637,4.637,0,0,0,4.369-2.918l5.673,2.4C26.162,38.8,23.261,42,17.391,42c-6.65,0-11.8-4.216-11.8-10.389,0-6.2,5.15-10.387,11.8-10.387,5.87,0,8.739,3.073,10.042,5.842L21.76,29.5a4.634,4.634,0,0,0-4.369-2.924,5.03,5.03,0,1,0,0,10.058m33.3,5H44.1V33.956H36.314v7.678H29.727V21.551h6.586v7.107H44.1V21.551h6.586Zm19.074,0-.848-2.587H60.57l-.846,2.587H52.582L60.6,21.551h8.281L76.9,41.634Zm29.959,0H93.4L85.379,30.859V41.634H78.794V21.551h6.78L93.137,31.67V21.551h6.586Zm24.259-3.7A13.38,13.38,0,0,1,114.039,42c-6.586,0-11.963-3.973-11.963-10.389,0-6.441,5.376-10.387,11.963-10.387,5.053,0,8.053,2.349,9.552,4.94l-5.543,2.619a4.561,4.561,0,0,0-4.009-2.2,5.035,5.035,0,1,0,0,10.058,6.54,6.54,0,0,0,3.552-.906v-.869h-4.2v-5h10.594Zm19.2-11.318h-9.912v2.347h9.682v5.059h-9.682v2.556h9.912v5.06h-16.5V21.551h16.5Zm27.705.237h-5.8V41.634h-6.586V26.849H152.66v-5.3h18.224Zm23.788,14.785h-6.586V33.956h-7.793v7.678h-6.585V21.551h6.585v7.107h7.793V21.551h6.586Zm19.545-15.022H204.3v2.347h9.682v5.059H204.3v2.556h9.912v5.06h-16.5V21.551h16.5Zm27.864,0h-9.912v2.347h9.682v5.059h-9.682v7.617h-6.585V21.551h16.5Zm23.464,6.745c0,5-3.1,8.639-10.433,8.639s-10.464-3.642-10.464-8.614V21.551h6.682V33.175c0,1.924,1.076,3.462,3.781,3.462,2.675,0,3.749-1.537,3.749-3.462V21.551h6.684Zm20.575-6.508h-5.8V41.634H273.73V26.849H267.9v-5.3H286.12Zm23.246,6.508c0,5-3.1,8.639-10.433,8.639s-10.464-3.642-10.464-8.614V21.551h6.682V33.175c0,1.924,1.076,3.462,3.781,3.462,2.675,0,3.751-1.537,3.751-3.462V21.551h6.682Zm14.774,8.277-3-6.441h-2.382v6.441h-6.583V21.551h11.6c5.085,0,7.823,3.13,7.823,6.9a6.467,6.467,0,0,1-3.91,6.083l3.942,7.1Zm26.637-15.022h-9.91v2.347h9.682v5.059h-9.682v2.556h9.91v5.06H334.282V21.551h16.495ZM62.267,33.987h4.955L64.743,26.91Z" transform="translate(0 10.661)" fill="#fff"/>
      </g>
      <g id="Group_7" data-name="Group 7" transform="translate(0 0.867)">
        <path id="Path_4" data-name="Path 4" d="M0,0H19.156V33.308c0,5.526,3.083,9.924,10.839,9.924,7.662,0,10.745-4.4,10.745-9.924V0H59.9V33.824c0,14.327-8.876,24.766-29.9,24.766S0,48.152,0,33.914Z" fill="#fff"/>
      </g>
    </g>
    <g id="Group_9" data-name="Group 9" transform="translate(63.808 -30.186)">
      <path id="Path_6" data-name="Path 6" d="M33.523,0,25.579,35.207,16.143,0H1.94L-7.5,35.207-15.533,0H-36.65L-18.8,57.559H1L9.042,24.937l8.034,32.622H36.887L54.733,0Z" transform="translate(36.65)" fill="#fff"/>
    </g>
    <g id="Group_11" data-name="Group 11" transform="translate(0 -31.054)" clip-path="url(#clip-path)">
      <g id="Group_10" data-name="Group 10" transform="translate(154.332 0)">
        <path id="Path_7" data-name="Path 7" d="M4.688,17.851a30.338,30.338,0,0,0,20.089,7.423c3.554,0,6.916-1.122,6.916-3.366s-2.617-3.366-8.784-4.4C12.63,15.781-3.069,13.537-3.069-.875c0-9.749,8.784-18.641,25.884-18.641,10.184,0,19.342,2.677,26.443,8.026L39.167.854a32.7,32.7,0,0,0-17.379-5.7c-4.674,0-5.7,1.553-5.7,3.019,0,2.246,2.522,3.021,9.158,4.053,10.276,1.643,25.507,4.4,25.507,17.693,0,12.685-10.184,20.018-26.909,20.018-13.271,0-22.333-3.621-28.969-9.146Z" transform="translate(5.125 19.516)" fill="#fff"/>
      </g>
    </g>
  </g>
</svg>
