<?xml version="1.0" encoding="utf-8"?>
<!-- Generator: Adobe Illustrator 23.0.1, SVG Export Plug-In . SVG Version: 6.00 Build 0)  -->
<svg version="1.1" id="Layer_1" xmlns="http://www.w3.org/2000/svg" xmlns:xlink="http://www.w3.org/1999/xlink" x="0px" y="0px"
	 viewBox="0 0 40.1 32.8" style="enable-background:new 0 0 40.1 32.8;" xml:space="preserve">
<style type="text/css">
	.st0{fill:#F2685B;}
</style>
<path class="st0" d="M0.5,17.7c-0.2-0.2-0.3-0.4-0.4-0.6c-0.2-0.4-0.2-0.9,0-1.4c0.1-0.2,0.2-0.4,0.4-0.6L15.1,0.6
	c0.7-0.7,1.9-0.7,2.6,0c0.7,0.7,0.7,1.9,0,2.6c0,0,0,0,0,0L6.2,14.6h32c1,0,1.8,0.8,1.8,1.8s-0.8,1.8-1.8,1.8h-32l11.5,11.5
	c0.7,0.7,0.7,1.9,0,2.6c-0.7,0.7-1.8,0.7-2.5,0L0.5,17.7z"/>
</svg>
