<svg xmlns="http://www.w3.org/2000/svg" xmlns:xlink="http://www.w3.org/1999/xlink" width="99.985" height="100" viewBox="0 0 99.985 100">
  <defs>
    <clipPath id="clip-path">
      <path id="Path_374" data-name="Path 374" d="M0,32.5H99.985v-100H0Z" transform="translate(0 67.5)" fill="#72d8d8"/>
    </clipPath>
  </defs>
  <g id="Group_67" data-name="Group 67" transform="translate(0 0)" clip-path="url(#clip-path)">
    <g id="Group_66" data-name="Group 66">
      <path id="Path_373" data-name="Path 373" d="M20.583,2.167a10.006,10.006,0,0,1,10,10,3.333,3.333,0,0,0,6.667,0A16.687,16.687,0,0,0,20.583-4.5,3.336,3.336,0,0,0,17.25-1.167a3.336,3.336,0,0,0,3.333,3.333m23.729,15.6c-8.8,0-11.861,7.668-12.385,9.456L8.552,3.915A11.76,11.76,0,0,0,.312.312c-1.243,0-8.323.474-10.893,7.532a11.721,11.721,0,0,0-3.276-.462A11.531,11.531,0,0,0-25.448,18.9a12.13,12.13,0,0,0,.47,3.336,11.432,11.432,0,0,0-7.554,10.8,12.2,12.2,0,0,0,2.594,7.5c-.88.647-6.333,3.564-6.333,10.376a12.143,12.143,0,0,0,3.594,8.6L-6.636,85.5a35.586,35.586,0,0,0,24.387,10,33.992,33.992,0,0,0,24.187-9.988l4.175-3.979A37.6,37.6,0,0,0,57.235,54.741V30.667A12.905,12.905,0,0,0,44.312,17.771ZM50.4,54.541a31.167,31.167,0,0,1-9.17,22.083L37.05,80.6a27.626,27.626,0,0,1-38.966,0L-27.775,54.813a5.609,5.609,0,0,1-1.652-3.938,4.892,4.892,0,0,1,4.935-4.853,5,5,0,0,1,3.542,1.462L-5.271,63.128A2.505,2.505,0,0,0-3.5,63.86a2.5,2.5,0,0,0,2.5-2.5,2.488,2.488,0,0,0-.733-1.767l-22.5-22.458a5.551,5.551,0,0,1-1.655-3.929,4.891,4.891,0,0,1,4.935-4.853,4.993,4.993,0,0,1,3.542,1.464L5.354,52.541a2.544,2.544,0,0,0,1.772.729A2.368,2.368,0,0,0,8.9,49.192l-26.041-26.17a6.268,6.268,0,0,1-1.834-3.938,4.892,4.892,0,0,1,4.933-4.855A5,5,0,0,1-10.5,15.693L15.809,41.755a2.5,2.5,0,0,0,1.77.732,2.369,2.369,0,0,0,1.772-4.08L-3.15,15.949a6.532,6.532,0,0,1-1.662-3.942A4.884,4.884,0,0,1,.121,7.152,5,5,0,0,1,3.662,8.616l31.776,31.53a1.5,1.5,0,0,0,1.074.452,1.533,1.533,0,0,0,1.547-1.535V31c0-1.176.916-6.576,6.261-6.576A6.251,6.251,0,0,1,50.58,30.67V54.541ZM-26.083,82.167a10.007,10.007,0,0,1-10-10,3.337,3.337,0,0,0-3.333-3.333,3.337,3.337,0,0,0-3.333,3.333A16.686,16.686,0,0,0-26.083,88.833,3.337,3.337,0,0,0-22.75,85.5a3.337,3.337,0,0,0-3.333-3.333" transform="translate(42.75 4.5)" fill="#72d8d8"/>
    </g>
  </g>
</svg>
