<?xml version="1.0" encoding="utf-8"?>
<!-- Generator: Adobe Illustrator 23.0.1, SVG Export Plug-In . SVG Version: 6.00 Build 0)  -->
<svg version="1.1" id="Layer_1" xmlns:serif="http://www.serif.com/"
	 xmlns="http://www.w3.org/2000/svg" xmlns:xlink="http://www.w3.org/1999/xlink" x="0px" y="0px" viewBox="0 0 600 600"
	 style="enable-background:new 0 0 600 600;" xml:space="preserve">
<style type="text/css">
	.st0{fill:#201F25;}
</style>
<path id="Dark_Blue" class="st0" d="M525,600H75c-41.4,0-75-33.6-75-75V75C0,33.6,33.6,0,75,0h450c41.4,0,75,33.6,75,75v450
	C600,566.4,566.4,600,525,600z M230.4,452.4c141.4,0,218.8-117.3,218.8-218.8c0-3.3,0-6.6-0.1-9.9c15-10.8,28-24.4,38.4-39.9
	c-13.8,6.2-28.6,10.2-44.3,12.1c15.9-9.4,28-24.6,33.9-42.6c-14.9,8.9-31.4,15.1-48.9,18.6c-14.1-15-34-24.3-56.1-24.3
	c-42.5,0-77,34.5-77,77c0,6,0.8,11.8,2,17.5c-63.9-3.1-120.6-33.9-158.6-80.4c-6.6,11.4-10.4,24.6-10.4,38.7
	c0,26.7,13.7,50.3,34.2,64.1c-12.6-0.5-24.4-3.9-34.8-9.6v1c0,37.2,26.6,68.4,61.6,75.5c-6.4,1.8-13.2,2.7-20.2,2.7
	c-5,0-9.8-0.4-14.4-1.4c9.7,30.6,38.3,52.8,71.8,53.4c-26.4,20.7-59.6,33-95.6,33c-6.2,0-12.3-0.3-18.3-1
	C146.6,439.6,187.1,452.4,230.4,452.4z"/>
</svg>
