<svg id="Group_1595" data-name="Group 1595" xmlns="http://www.w3.org/2000/svg" xmlns:xlink="http://www.w3.org/1999/xlink" width="100" height="100.002" viewBox="0 0 100 100.002">
  <defs>
    <clipPath id="clip-path">
      <rect id="Rectangle_2931" data-name="Rectangle 2931" width="100" height="100.002" fill="#201f25"/>
    </clipPath>
  </defs>
  <g id="Group_1594" data-name="Group 1594" clip-path="url(#clip-path)">
    <path id="Path_1735" data-name="Path 1735" d="M98.9,32.223H70.057V21.106A1.105,1.105,0,0,0,68.951,20H51.668V7.848h11.26a.408.408,0,0,0,.408-.408V.408A.408.408,0,0,0,62.927,0H48.742a.408.408,0,0,0-.408.408V20H31.05a1.105,1.105,0,0,0-1.105,1.105V32.223H1.105A1.105,1.105,0,0,0,0,33.328V38.9H0A1.105,1.105,0,0,0,1.105,40H4.445V92.224H1.105A1.105,1.105,0,0,0,0,93.33V98.9H0A1.105,1.105,0,0,0,1.105,100H98.895A1.105,1.105,0,0,0,100,98.9V93.33a1.105,1.105,0,0,0-1.105-1.105H95.556V40h3.339A1.105,1.105,0,0,0,100,38.9V33.328a1.105,1.105,0,0,0-1.105-1.105ZM50,28.663a8.619,8.619,0,1,1-6.094,2.524A8.619,8.619,0,0,1,50,28.663M28.839,63.121H11.1A1.105,1.105,0,0,1,10,62.016V47A1.105,1.105,0,0,1,11.1,45.9H28.839A1.105,1.105,0,0,1,29.944,47V62.016a1.105,1.105,0,0,1-1.105,1.105m1.105,7.086V85.075a1.105,1.105,0,0,1-1.105,1.105H11.1A1.105,1.105,0,0,1,10,85.075V70.207A1.105,1.105,0,0,1,11.1,69.1H28.839a1.105,1.105,0,0,1,1.105,1.105m7.775,22.016V65.869a2.063,2.063,0,0,1,2.062-2.063H60.22a2.063,2.063,0,0,1,2.062,2.063V92.224ZM71.161,69.1H88.9A1.105,1.105,0,0,1,90,70.208V85.076A1.105,1.105,0,0,1,88.9,86.181H71.161a1.1,1.1,0,0,1-1.105-1.105V70.208A1.105,1.105,0,0,1,71.161,69.1m-1.105-7.086V47.005A1.105,1.105,0,0,1,71.161,45.9H88.9A1.105,1.105,0,0,1,90,47.005V62.017A1.105,1.105,0,0,1,88.9,63.122H71.161a1.105,1.105,0,0,1-1.105-1.105Z" fill="#201f25"/>
  </g>
</svg>
