<?xml version="1.0" encoding="utf-8"?>
<!-- Generator: Adobe Illustrator 23.0.1, SVG Export Plug-In . SVG Version: 6.00 Build 0)  -->
<svg version="1.1" id="Layer_1" xmlns:serif="http://www.serif.com/"
	 xmlns="http://www.w3.org/2000/svg" xmlns:xlink="http://www.w3.org/1999/xlink" x="0px" y="0px" viewBox="0 0 600 600"
	 style="enable-background:new 0 0 600 600;" xml:space="preserve">
<style type="text/css">
	.st0{fill-rule:evenodd;clip-rule:evenodd;fill:#FFFFFF;}
</style>
<path class="st0" d="M526.7,0C567.2,0,600,32.8,600,73.3v453.4c0,40.5-32.8,73.3-73.3,73.3H401.9V373.9h78l14.8-96.8h-92.9v-62.8
	c0-26.5,13-52.3,54.6-52.3h42.2V79.5c0,0-38.3-6.5-75-6.5c-76.5,0-126.5,46.4-126.5,130.3v73.8h-85v96.8h85V600H73.3
	C32.8,600,0,567.2,0,526.7V73.3C0,32.8,32.8,0,73.3,0L526.7,0L526.7,0z"/>
</svg>
