<?xml version="1.0" encoding="utf-8"?>
<!-- Generator: Adobe Illustrator 23.0.1, SVG Export Plug-In . SVG Version: 6.00 Build 0)  -->
<svg version="1.1" id="Layer_1" xmlns="http://www.w3.org/2000/svg" xmlns:xlink="http://www.w3.org/1999/xlink" x="0px" y="0px"
	 viewBox="0 0 40.1 32.8" style="enable-background:new 0 0 40.1 32.8;" xml:space="preserve">
<style type="text/css">
	.st0{fill:#ffd5e2;}
</style>
<path class="st0" d="M25,32.3c-0.7,0.7-1.8,0.7-2.5,0c-0.7-0.7-0.7-1.9,0-2.6l11.5-11.5h-32c-1,0-1.8-0.8-1.8-1.8s0.8-1.8,1.8-1.8
	h32L22.4,3.1c0,0,0,0,0,0c-0.7-0.7-0.7-1.9,0-2.6s1.9-0.7,2.6,0l14.6,14.6c0.2,0.2,0.3,0.4,0.4,0.6c0.2,0.4,0.2,0.9,0,1.4
	c-0.1,0.2-0.2,0.4-0.4,0.6L25,32.3z"/>
</svg>
