<?xml version="1.0" encoding="utf-8"?>
<!-- Generator: Adobe Illustrator 23.0.1, SVG Export Plug-In . SVG Version: 6.00 Build 0)  -->
<svg version="1.1" id="Layer_1" xmlns="http://www.w3.org/2000/svg" xmlns:xlink="http://www.w3.org/1999/xlink" x="0px" y="0px"
	 viewBox="0 0 690 690" style="enable-background:new 0 0 690 690;" xml:space="preserve">
<style type="text/css">
	.st0{fill:#201F25;}
</style>
<path class="st0" d="M345,139.8c-112,0-203,91-203.1,203c0,38.4,10.8,75.8,31.1,108l4.8,7.7l-20.5,74.9l76.9-20.2l7.4,4.5
	c31.1,18.5,66.8,28.3,103.3,28.3h0.2c111.8,0,205.3-91,205.3-203c0-54.2-23.4-105.2-61.8-143.5C450,160.9,399.2,139.8,345,139.8
	L345,139.8z M464.4,430c-5.1,14.3-29.4,27.3-41.1,29c-19.4,2.9-34.5,1.4-73.2-15.2c-61.1-26.5-101.2-88.1-104.3-92.1
	c-3.1-4-25-33.1-25-63.1s15.7-44.8,21.4-51c5.5-6.2,12.2-7.7,16.3-7.7c4,0,8.2,0,11.7,0.2c3.7,0.2,8.8-1.4,13.7,10.5
	c5.1,12.2,17.3,42.2,18.8,45.3c1.5,3.1,2.6,6.6,0.5,10.6c-11.7,23.4-24.2,22.5-17.9,33.3c23.6,40.5,47.1,54.5,83,72.5
	c6.2,3.1,9.7,2.6,13.2-1.5c3.5-4,15.2-17.9,19.3-23.9c4-6.2,8.2-5.1,13.7-3.1c5.5,2,35.6,16.8,41.7,19.9s10.2,4.6,11.7,7.1
	C469.4,403.5,469.4,415.8,464.4,430z M616.1,0H73.9C33.1,0,0,33.1,0,73.9v542.1C0,656.9,33.1,690,73.9,690h542.1
	c40.8,0,73.9-33.1,73.9-73.9V73.9C690,33.1,656.9,0,616.1,0z M344.8,587.1c-41,0-81.2-10.3-116.7-29.7l-129.5,34l34.7-126.6
	c-21.4-37-32.7-79-32.7-122.1c0.2-134.6,109.7-244.1,244.3-244.1c65.3,0,126.6,25.4,172.8,71.6c46.1,46.2,73.8,107.5,73.8,172.8
	C591.4,477.6,479.5,587.1,344.8,587.1L344.8,587.1z"/>
</svg>
